<?xml version="1.0" encoding="iso-8859-1"?>
<!-- Generator: Adobe Illustrator 19.0.0, SVG Export Plug-In . SVG Version: 6.00 Build 0)  -->
<svg version="1.1" id="Capa_1" xmlns="http://www.w3.org/2000/svg" xmlns:xlink="http://www.w3.org/1999/xlink" x="0px" y="0px"
	 viewBox="0 0 409.6 409.6" style="enable-background:new 0 0 409.6 409.6;" xml:space="preserve">
<circle style="fill:#E05B49;" cx="204.8" cy="204.8" r="204.8"/>
<path style="opacity:0.1;enable-background:new    ;" d="M407.355,235.089L302.403,130.138c-1.508-1.617-3.053-3.184-4.669-4.669
	l-0.023-0.023l-0.003,0.001c-16.368-15.036-39.402-23.335-91.904-25.302c-29.397-1.067-100.395,13.739-109.653,42.923
	c-2.218,6.997-4.779,10.709-6.613,20.779h-0.725c-0.469,3.67-0.896,11.989-0.896,11.989h0.171c-0.256,2.987-0.47,6.315-0.597,10.07
	c-0.129,3.196,1.481,6.314,3.889,8.869l-0.044,0.041l38.299,38.299L120.3,246.62c-3.541,5.077-5.717,11.093-6.528,17.365h-0.341
	v36.992c0,6.429-0.624,8.004,1.746,8.377l-0.048,0.035l99.951,99.951C313.242,404.487,393.204,330.52,407.355,235.089z"/>
<path style="fill:#D5D6DB;" d="M224.34,196.031h-34.339c-13.517,0-24.514-11.856-24.514-26.428v-19.941h11.109v19.941
	c0,7.969,6.014,14.451,13.405,14.451h34.339c7.543,0,13.68-6.618,13.68-14.751v-19.64h11.109v19.64
	C249.129,184.04,238.01,196.031,224.34,196.031z"/>
<path style="fill:#3EA69B;" d="M168.298,190.043h75.277c5.658,0,10.976,2.912,14.314,7.837l37.345,55.099
	c2.162,3.19,3.328,7.039,3.328,10.99v28.462c0,9.411-7.076,17.041-15.805,17.041H129.22c-8.729,0-15.805-7.629-15.805-17.041
	v-23.403c0-8.079,2.418-15.943,6.896-22.422l33.771-48.868C157.428,192.895,162.698,190.043,168.298,190.043z"/>
<path style="fill:#44C4A1;" d="M113.415,263.968v36.995c0,9.411-1.457,8.508,7.272,8.508H291.29c8.729,0,7.272,0.904,7.272-8.508
	v-36.995H113.415z"/>
<g>
	<polygon style="fill:#EBF0F3;" points="162.737,253.62 139.584,253.62 147.078,239.382 167.659,239.382 	"/>
	<polygon style="fill:#EBF0F3;" points="199.998,253.62 176.845,253.62 180.2,239.382 200.781,239.382 	"/>
	<polygon style="fill:#EBF0F3;" points="237.259,253.62 214.106,253.62 213.323,239.382 233.904,239.382 	"/>
</g>
<polygon style="fill:#E56353;" points="274.52,253.62 251.367,253.62 246.445,239.382 267.026,239.382 "/>
<g>
	<polygon style="fill:#EBF0F3;" points="169.842,233.065 150.402,233.065 155.781,222.845 173.375,222.845 	"/>
	<polygon style="fill:#EBF0F3;" points="201.129,233.065 181.689,233.065 184.097,222.845 201.691,222.845 	"/>
	<polygon style="fill:#EBF0F3;" points="232.415,233.065 212.975,233.065 212.413,222.845 230.007,222.845 	"/>
</g>
<polygon style="fill:#FCD462;" points="263.702,233.065 244.262,233.065 240.728,222.845 258.323,222.845 "/>
<g>
	<polygon style="fill:#EBF0F3;" points="174.984,218.191 158.23,218.191 162.278,210.5 177.643,210.5 	"/>
	<polygon style="fill:#EBF0F3;" points="201.947,218.191 185.193,218.191 187.006,210.5 202.37,210.5 	"/>
	<polygon style="fill:#EBF0F3;" points="228.91,218.191 212.157,218.191 211.733,210.5 227.098,210.5 	"/>
</g>
<polygon style="fill:#27A2DB;" points="255.874,218.191 239.12,218.191 236.461,210.5 251.825,210.5 "/>
<g>
	<polygon style="fill:#EBF0F3;" points="178.877,206.929 164.158,206.929 167.314,200.931 180.951,200.931 	"/>
	<polygon style="fill:#EBF0F3;" points="202.567,206.929 187.847,206.929 189.261,200.931 202.897,200.931 	"/>
	<polygon style="fill:#EBF0F3;" points="226.257,206.929 211.537,206.929 211.207,200.931 224.843,200.931 	"/>
</g>
<polygon style="fill:#64798A;" points="249.946,206.929 235.226,206.929 233.153,200.931 246.789,200.931 "/>
<g>
	<polygon style="fill:#E1E6E9;" points="178.877,206.929 164.158,206.929 165.162,205.02 179.537,205.02 	"/>
	<polygon style="fill:#E1E6E9;" points="202.567,206.929 187.847,206.929 188.297,205.02 202.672,205.02 	"/>
	<polygon style="fill:#E1E6E9;" points="226.257,206.929 211.537,206.929 211.432,205.02 225.807,205.02 	"/>
</g>
<polygon style="fill:#3A556A;" points="249.946,206.929 235.226,206.929 234.567,205.02 248.942,205.02 "/>
<g>
	<polygon style="fill:#E1E6E9;" points="174.984,218.191 158.23,218.191 159.527,215.727 175.836,215.727 	"/>
	<polygon style="fill:#E1E6E9;" points="201.947,218.191 185.193,218.191 185.774,215.727 202.083,215.727 	"/>
	<polygon style="fill:#E1E6E9;" points="228.91,218.191 212.157,218.191 212.021,215.727 228.33,215.727 	"/>
</g>
<polygon style="fill:#2D93BA;" points="255.874,218.191 239.12,218.191 238.268,215.727 254.576,215.727 "/>
<g>
	<polygon style="fill:#E1E6E9;" points="169.842,233.065 150.402,233.065 152.141,229.761 170.985,229.761 	"/>
	<polygon style="fill:#E1E6E9;" points="201.129,233.065 181.689,233.065 182.467,229.761 201.311,229.761 	"/>
	<polygon style="fill:#E1E6E9;" points="232.415,233.065 212.975,233.065 212.793,229.761 231.637,229.761 	"/>
</g>
<polygon style="fill:#F6C358;" points="263.702,233.065 244.262,233.065 243.119,229.761 261.963,229.761 "/>
<g>
	<polygon style="fill:#E1E6E9;" points="162.737,253.62 139.584,253.62 142.036,248.96 164.347,248.96 	"/>
	<polygon style="fill:#E1E6E9;" points="199.998,253.62 176.845,253.62 177.943,248.96 200.254,248.96 	"/>
	<polygon style="fill:#E1E6E9;" points="237.259,253.62 214.106,253.62 213.85,248.96 236.161,248.96 	"/>
</g>
<polygon style="fill:#D15241;" points="274.52,253.62 251.367,253.62 249.756,248.96 272.067,248.96 "/>
<g>
	<path style="fill:#1C75A1;" d="M174.675,158.401h-7.381c-1.598,0-2.894-1.296-2.894-2.894v-11.679c0-1.598,1.296-2.894,2.894-2.894
		h7.381c1.598,0,2.894,1.296,2.894,2.894v11.679C177.569,157.106,176.273,158.401,174.675,158.401z"/>
	<path style="fill:#1C75A1;" d="M246.81,160.522h-7.381c-1.598,0-2.894-1.296-2.894-2.894v-11.679c0-1.598,1.296-2.894,2.894-2.894
		h7.381c1.598,0,2.894,1.296,2.894,2.894v11.679C249.704,159.227,248.408,160.522,246.81,160.522z"/>
</g>
<path style="fill:#FCD462;" d="M87.474,185.905c-0.295,7.37,8.427,14.551,15.803,14.583l19.756-1.691
	c18.812-1.803,33.45-2.456,34.987-30.496c0.438-7.991-6.365-23.392,16.382-27.503c18.857-3.408,63.557-4.614,76.085,9.288
	c7.036,7.808,4.24,18.389,3.114,24.446c-3.938,21.192,14.016,28.657,32.811,30.625c0,0,15.688,1.718,20.939,1.977
	c7.367,0.363,11.704-5.497,13.413-13.297c0,0,7.742-33.859-16.073-61.191c-17.092-19.616-38.496-30.234-98.871-32.485
	c-29.42-1.097-100.43,13.737-109.675,42.887C92.764,153.71,88.647,156.598,87.474,185.905z"/>
<g>
	<path style="fill:#2F4859;" d="M90.36,163.869l67.657,2.654c0.3,3.666-0.885,9.628-0.885,9.628l-69.206-0.302
		c0,0,0.417-8.327,0.87-11.987L90.36,163.869z"/>
	<path style="fill:#2F4859;" d="M321.987,181.08l-68.92-0.301c0,0-0.507-1.123,1.905-14.66l65.741,0.287
		C320.713,166.406,322.675,177.967,321.987,181.08z"/>
</g>
<g>
</g>
<g>
</g>
<g>
</g>
<g>
</g>
<g>
</g>
<g>
</g>
<g>
</g>
<g>
</g>
<g>
</g>
<g>
</g>
<g>
</g>
<g>
</g>
<g>
</g>
<g>
</g>
<g>
</g>
</svg>
